<?xml version="1.0" encoding="utf-8"?>
<!-- Generator: Adobe Illustrator 26.2.1, SVG Export Plug-In . SVG Version: 6.00 Build 0)  -->
<svg version="1.1" id="Layer_1" xmlns="http://www.w3.org/2000/svg" xmlns:xlink="http://www.w3.org/1999/xlink" x="0px" y="0px"
	 viewBox="0 0 570 570" style="enable-background:new 0 0 570 570;" xml:space="preserve">
<style type="text/css">
	.st0{fill:#5B6259;}
</style>
<path class="st0" d="M410.5,300c0-0.5,0-1,0-1.5s0-1.1,0-1.7c0-69-56.1-125.1-125.1-125.1c-69,0-125,56.2-125,125.1
	c0,1.1,0,2.2,0,3.3c0.9,45.4,20.3,71.2,39.1,96.2c17.8,23.6,34.6,45.9,34.6,84.2l0,0v52.4c0,3,2.5,5.5,5.5,5.5h4.4
	c3.3,16.3,20.6,28.7,41.5,28.7s38.3-12.5,41.5-28.7h4.4c3,0,5.5-2.5,5.5-5.5v-52.4c0-38.3,16.8-60.6,34.6-84.2
	C390.2,371.4,409.6,345.5,410.5,300C410.5,300,410.5,300,410.5,300L410.5,300z M326,501.2H245v-15.3H326V501.2z M326,527.4H245
	v-15.3H326V527.4z M285.5,556.2c-14.6,0-27-7.6-30.2-17.8h60.6C312.5,548.5,300.1,556.2,285.5,556.2z M399.7,298.3
	c0,0.5,0,1.1,0,1.7c-0.8,41.8-18.3,65.1-36.9,89.8c-17.3,22.9-35.1,46.6-36.7,85.4h-81.2c-1.6-38.6-19.4-62.3-36.7-85.4
	c-18.5-24.7-36.1-48-36.9-89.9c0-1,0-1.9,0-3c0-63,51.2-114.2,114.2-114.2s114.2,51.2,114.2,114.2
	C399.7,297.3,399.7,297.8,399.7,298.3L399.7,298.3z"/>
<path class="st0" d="M285.5,161.8c3,0,5.5-2.5,5.5-5.5v-30.9c0-3-2.5-5.5-5.5-5.5s-5.5,2.5-5.5,5.5v30.9
	C280,159.3,282.5,161.8,285.5,161.8z"/>
<path class="st0" d="M210.5,177.8c1,1.8,2.8,2.7,4.8,2.7c1,0,1.9-0.3,2.7-0.7c2.6-1.5,3.5-4.8,2-7.5l-15.4-26.7
	c-1.5-2.6-4.8-3.5-7.5-2s-3.5,4.8-2,7.5L210.5,177.8z"/>
<path class="st0" d="M134.4,215.8l26.7,15.4c0.9,0.5,1.8,0.7,2.7,0.7c1.9,0,3.7-1,4.8-2.7c1.5-2.6,0.6-5.9-2-7.5l-26.7-15.3
	c-2.6-1.5-5.9-0.6-7.5,2C130.9,211,131.8,214.3,134.4,215.8z"/>
<path class="st0" d="M150.5,296.9c0-3-2.5-5.5-5.5-5.5h-30.9c-3,0-5.5,2.5-5.5,5.5c0,3,2.5,5.5,5.5,5.5H145
	C148,302.3,150.5,299.9,150.5,296.9z"/>
<path class="st0" d="M161.1,362.4l-26.7,15.4c-2.6,1.5-3.5,4.8-2,7.5c1,1.8,2.8,2.7,4.8,2.7c1,0,1.9-0.3,2.7-0.7l26.7-15.4
	c2.6-1.5,3.5-4.8,2-7.5C167.1,361.8,163.7,360.9,161.1,362.4z"/>
<path class="st0" d="M353,179.8c0.9,0.5,1.8,0.7,2.7,0.7c1.9,0,3.7-1,4.8-2.7l15.3-26.7c1.5-2.6,0.6-5.9-2-7.5
	c-2.6-1.5-5.9-0.6-7.5,2L351,172.3C349.5,175,350.5,178.3,353,179.8L353,179.8z"/>
<path class="st0" d="M407.2,232c1,0,1.9-0.3,2.7-0.7l26.7-15.4c2.6-1.5,3.5-4.8,2-7.5c-1.5-2.6-4.8-3.5-7.5-2l-26.7,15.4
	c-2.6,1.5-3.5,4.8-2,7.5C403.5,231.1,405.3,232,407.2,232L407.2,232z"/>
<path class="st0" d="M456.8,291.4H426c-3,0-5.5,2.5-5.5,5.5s2.5,5.5,5.5,5.5h30.9c3,0,5.5-2.5,5.5-5.5S459.9,291.4,456.8,291.4
	L456.8,291.4z"/>
<path class="st0" d="M436.6,377.9l-26.7-15.4c-2.6-1.5-5.9-0.6-7.5,2c-1.5,2.6-0.6,5.9,2,7.5l26.7,15.4c0.9,0.5,1.8,0.7,2.7,0.7
	c1.9,0,3.7-1,4.8-2.7C440.1,382.7,439.2,379.4,436.6,377.9z"/>
</svg>
